<?xml version="1.0" encoding="UTF-8" standalone="no"?>
<!-- Created with Inkscape (http://www.inkscape.org/) -->

<svg
   xmlns:dc="http://purl.org/dc/elements/1.1/"
   xmlns:cc="http://creativecommons.org/ns#"
   xmlns:rdf="http://www.w3.org/1999/02/22-rdf-syntax-ns#"
   xmlns:svg="http://www.w3.org/2000/svg"
   xmlns="http://www.w3.org/2000/svg"
   xmlns:sodipodi="http://sodipodi.sourceforge.net/DTD/sodipodi-0.dtd"
   xmlns:inkscape="http://www.inkscape.org/namespaces/inkscape"
   version="1.1"
   id="svg869"
   width="170.56"
   height="256"
   viewBox="0 0 170.56 256"
   sodipodi:docname="andi_comic_only_head_1.svg"
   inkscape:version="0.92.3 (2405546, 2018-03-11)">
  <metadata
     id="metadata875">
    <rdf:RDF>
      <cc:Work
         rdf:about="">
        <dc:format>image/svg+xml</dc:format>
        <dc:type
           rdf:resource="http://purl.org/dc/dcmitype/StillImage" />
        <dc:title></dc:title>
      </cc:Work>
    </rdf:RDF>
  </metadata>
  <defs
     id="defs873" />
  <sodipodi:namedview
     pagecolor="#ffffff"
     bordercolor="#666666"
     borderopacity="1"
     objecttolerance="10"
     gridtolerance="10"
     guidetolerance="10"
     inkscape:pageopacity="0"
     inkscape:pageshadow="2"
     inkscape:window-width="1853"
     inkscape:window-height="1025"
     id="namedview871"
     showgrid="false"
     inkscape:zoom="1.28125"
     inkscape:cx="-46.150438"
     inkscape:cy="227.60075"
     inkscape:window-x="67"
     inkscape:window-y="27"
     inkscape:window-maximized="1"
     inkscape:current-layer="svg869" />
  <g
     id="g1148"
     transform="matrix(1.5140814,0,0,1.5140814,-60.092456,2.19537)">
    <path
       sodipodi:nodetypes="ssssssssssss"
       inkscape:connector-curvature="0"
       id="path881"
       d="m 54.653757,80.490676 c 0.27893,4.332708 -0.43202,10.211669 -0.01961,14.533714 1.230064,12.89107 3.322037,31.96581 6.829269,38.2439 2.174532,3.8925 14.300637,13.90003 22.043036,16.99929 3.928556,1.57259 14.625768,1.93855 22.598288,-0.59518 4.39559,-1.39695 21.26533,-11.97618 24.64083,-18.17407 2.43634,-4.47346 5.79883,-23.99784 6.81541,-37.059306 1.14654,-14.731277 3.66173,-30.545966 -1.7561,-44.292683 -4.01857,-10.196366 -14.01272,-18.524337 -24.39025,-22.04878 -11.890044,-4.038128 -25.841788,-3.272239 -37.658531,0.97561 -9.44123,3.393907 -17.994702,11.356147 -21.082977,20.901721 -3.380735,10.449546 1.275048,19.555651 1.980635,30.515784 z"
       style="opacity:1;fill:#ffeeaa;fill-opacity:1;stroke:#000000;stroke-width:1px;stroke-linecap:butt;stroke-linejoin:miter;stroke-opacity:1" />
    <path
       sodipodi:nodetypes="ccaccscc"
       inkscape:connector-curvature="0"
       id="path927"
       d="m 59.327984,127.27208 c 6.058565,2.89119 12.304441,5.73449 17.453464,9.17513 8.375802,14.30789 11.044516,7.96664 17.453465,8.07137 6.841197,0.1118 10.602687,3.66544 18.902167,-8.00238 12.24023,-4.35848 18.15215,-9.68865 22.76539,-22.90336 -1.20932,14.68245 -7.46871,22.86882 -15.86667,28.54879 -6.94802,4.69929 -12.14633,9.00671 -25.524943,9.11758 -28.086021,-0.30146 -33.114733,-16.75743 -35.182873,-24.00713 z"
       style="opacity:0.14299999;fill:#585032;fill-opacity:1;stroke:none;stroke-width:1px;stroke-linecap:butt;stroke-linejoin:miter;stroke-opacity:1" />
    <path
       sodipodi:nodetypes="cccc"
       inkscape:connector-curvature="0"
       id="path846"
       d="m 51.39459,85.604512 c -0.801958,1.632669 0.01095,3.265339 0.413917,4.898008 l 2.06958,-3.242343 z"
       style="fill:#6e622f;fill-opacity:1;stroke:#000000;stroke-width:1px;stroke-linecap:butt;stroke-linejoin:miter;stroke-opacity:1" />
    <path
       sodipodi:nodetypes="cscscc"
       inkscape:connector-curvature="0"
       id="path844"
       d="m 51.325604,79.809686 c -1.172762,0.367925 -2.474868,1.344217 -2.207553,2.552483 0.472552,2.135932 2.529488,3.564278 3.932204,5.242938 -2.920408,5.38091 -4.067208,6.794163 -3.518287,10.623849 0.560237,3.908634 3.886213,8.623254 6.484686,10.071964 -0.853099,-11.04557 1.015162,-22.304456 -4.69105,-28.491234 z"
       style="opacity:1;fill:#ffeeaa;fill-opacity:1;stroke:#000000;stroke-width:1px;stroke-linecap:butt;stroke-linejoin:miter;stroke-opacity:1" />
    <path
       sodipodi:nodetypes="cccc"
       inkscape:connector-curvature="0"
       id="path852"
       d="m 146.45734,84.707694 c -1.24871,2.783339 -1.9049,4.184142 -2.62147,5.72584 l -1.79364,-3.932203 c 1.31476,-1.107932 2.40966,-2.930437 4.41511,-1.793637 z"
       style="fill:#71632c;fill-opacity:1;stroke:#000000;stroke-width:1px;stroke-linecap:butt;stroke-linejoin:miter;stroke-opacity:1" />
    <path
       sodipodi:nodetypes="cscscc"
       inkscape:connector-curvature="0"
       id="path850"
       d="m 145.55849,80.149713 c 0.95118,0.443845 1.76951,2.31366 1.45074,3.661163 -0.38118,1.611353 -1.65567,-0.390921 -4.13917,3.242343 0.94281,4.507087 4.13526,9.105955 2.82843,13.521261 -1.36646,4.61679 -6.62266,6.99059 -9.93399,10.48588 0.23902,-12.172401 1.0038,-25.32977 9.79399,-30.910647 z"
       style="fill:#ffeeaa;fill-opacity:1;stroke:#000000;stroke-width:1px;stroke-linecap:butt;stroke-linejoin:miter;stroke-opacity:1" />
    <path
       sodipodi:nodetypes="ccsssssscssssccc"
       inkscape:connector-curvature="0"
       id="path949"
       d="m 64.377218,78.02595 c 2.784778,-1.281165 16.553397,-0.787996 18.027487,-0.03491 2.816406,1.811486 4.930633,3.43939 5.272231,5.242633 0.634452,3.349176 0.128104,7.178886 0.582172,10.456546 0.232197,1.676107 2.419199,4.82292 1.506746,4.761222 -1.008056,-0.06816 -4.944371,6.683589 -4.941634,5.252229 0.01073,-5.613515 -3.518828,-0.99979 -3.828771,-1.26194 -0.212849,-0.18003 -0.101163,7.64358 -0.104592,6.35493 -0.0089,-3.32792 -0.896761,-3.20015 -5.144199,-0.56473 -5.382265,2.33609 -9.028632,7.35159 -7.784313,13.81238 0.295342,1.53348 -3.265936,-1.29126 -5.207083,-5.48579 -1.964611,-4.24524 -0.763445,-7.41398 10.881924,-10.81176 6.428448,-1.87563 9.976516,-10.064181 10.480237,-12.719036 0.894691,-4.715459 -8.612602,10.657146 -20.92711,-7.105304 -0.708829,-1.786124 -5.155193,-4.616618 1.186902,-7.896466 z"
       style="opacity:0.09200003;fill:#585032;fill-opacity:1;stroke:none;stroke-width:0.30000001;stroke-linecap:butt;stroke-linejoin:miter;stroke-miterlimit:4;stroke-dasharray:none;stroke-opacity:1" />
    <path
       sodipodi:nodetypes="cc"
       inkscape:connector-curvature="0"
       id="path883"
       d="m 115.89653,113.47487 c 3.43975,2.84239 2.80122,7.60397 0,13.38329"
       style="fill:none;stroke:#000000;stroke-width:0.80000001;stroke-linecap:butt;stroke-linejoin:miter;stroke-miterlimit:4;stroke-dasharray:none;stroke-opacity:1" />
    <path
       sodipodi:nodetypes="cc"
       inkscape:connector-curvature="0"
       id="path885"
       d="m 75.746658,108.23193 c -8.322948,3.17206 -9.280754,8.52638 -7.726435,14.62504"
       style="fill:none;stroke:#000000;stroke-width:0.80000001;stroke-linecap:butt;stroke-linejoin:miter;stroke-miterlimit:4;stroke-dasharray:none;stroke-opacity:1" />
    <path
       sodipodi:nodetypes="csccc"
       inkscape:connector-curvature="0"
       id="path848"
       d="m 51.609756,98.829268 c 0.796748,0.715447 1.627021,2.409652 2.390244,1.658542 1.239132,-1.219468 -0.715447,-2.666672 0.682927,-4.682932 -0.2892,-2.478498 -0.653969,-3.747875 -1.073171,-4.146341 -1.720815,1.599632 -1.787124,4.440144 -2,7.170731 z"
       style="fill:#6e622f;fill-opacity:1;stroke:#000000;stroke-width:1px;stroke-linecap:butt;stroke-linejoin:miter;stroke-opacity:1" />
    <path
       sodipodi:nodetypes="cssc"
       inkscape:connector-curvature="0"
       id="path889"
       d="m 77.901003,139.7408 c 1.672287,3.63044 3.416683,6.79645 5.668343,7.74772 4.36639,1.8447 14.956722,2.19602 23.602824,-1.03766 2.13069,-0.79689 2.86179,-2.43903 4.97561,-8.19512"
       style="fill:none;stroke:#000000;stroke-width:0.80000001;stroke-linecap:butt;stroke-linejoin:miter;stroke-miterlimit:4;stroke-dasharray:none;stroke-opacity:1" />
    <path
       sodipodi:nodetypes="ssssss"
       inkscape:connector-curvature="0"
       id="path916"
       d="m 100.85757,77.878077 c -1.296227,-1.023311 4.75309,-3.467474 7.59194,-3.405423 6.00013,0.13115 10.36482,-0.50121 17.57613,3.716875 0.5787,0.338495 -0.0114,2.173981 -0.67803,2.103059 -3.12391,-0.332331 -5.83269,-2.702633 -8.96818,-2.897413 -8.17587,-0.507892 -14.92265,0.955952 -15.52186,0.482902 z"
       style="opacity:1;fill:#a05a2c;fill-opacity:1;stroke:#000000;stroke-width:1px;stroke-linecap:butt;stroke-linejoin:miter;stroke-opacity:1" />
    <path
       sodipodi:nodetypes="sssssss"
       inkscape:connector-curvature="0"
       id="path918"
       d="m 60.500746,80.706504 c -1.133453,-1.259425 2.380465,-3.390332 7.229667,-4.95085 4.268734,-1.373718 10.954029,-2.591349 12.402776,-1.902439 1.897083,0.902104 4.654717,3.490721 3.960779,4.369792 -0.440726,0.558305 -3.885749,-1.214436 -5.953005,-1.298898 -7.345744,-0.300127 -10.361433,0.969005 -13.776999,2.12673 -1.326868,0.449749 -2.926,2.697046 -3.863218,1.655665 z"
       style="opacity:1;fill:#a05a2c;fill-opacity:1;stroke:#000000;stroke-width:1px;stroke-linecap:butt;stroke-linejoin:miter;stroke-opacity:1" />
    <path
       sodipodi:nodetypes="ccccc"
       inkscape:connector-curvature="0"
       id="path854"
       d="m 138.17901,95.331542 c 2.26551,2.430637 1.24297,4.642071 0.89682,6.898598 0.595,-2.34347 1.62958,-3.232239 3.24234,-2.20755 0.37923,-6.032134 -1.70959,-6.527339 -2.82842,-7.657447 -0.57527,0.930046 -0.92919,1.948956 -1.31074,2.966399 z"
       style="fill:#6e622f;fill-opacity:1;stroke:#000000;stroke-width:1px;stroke-linecap:butt;stroke-linejoin:miter;stroke-opacity:1" />
    <path
       sodipodi:nodetypes="cssssc"
       inkscape:connector-curvature="0"
       id="path924"
       d="m 83.266135,101.05738 c -1.545692,0.23484 -3.967482,8.18364 -0.691891,9.18004 1.860869,0.56606 4.106099,2.42792 6.400993,3.47298 1.826717,0.83185 4.458572,0.87099 6.40733,0.0857 2.467243,-0.99425 1.592743,-2.13465 7.935423,-3.53357 3.01521,-0.66503 1.99127,-7.38146 -0.45984,-9.41213"
       style="opacity:1;fill:none;stroke:#000000;stroke-width:1px;stroke-linecap:butt;stroke-linejoin:miter;stroke-opacity:1" />
    <path
       sodipodi:nodetypes="ccc"
       inkscape:connector-curvature="0"
       id="path928"
       d="m 87.750227,83.948847 c 1.375557,2.231473 0.56807,4.948068 0.413916,7.519477 -0.317638,2.902465 0.242177,4.488751 0.620874,6.346715"
       style="opacity:1;fill:none;stroke:#000000;stroke-width:1px;stroke-linecap:butt;stroke-linejoin:miter;stroke-opacity:1" />
    <path
       sodipodi:nodetypes="cc"
       inkscape:connector-curvature="0"
       id="path948"
       d="m 85.61166,102.85101 c 0.284456,-1.43021 2.076578,-3.795223 4.553078,-4.553069"
       style="fill:none;stroke:#000000;stroke-width:0.5;stroke-linecap:butt;stroke-linejoin:miter;stroke-miterlimit:4;stroke-dasharray:none;stroke-opacity:1" />
    <path
       sodipodi:nodetypes="cscscc"
       inkscape:connector-curvature="0"
       id="path954"
       d="m 67.414634,84.634146 c 2.047287,-2.223277 4.687016,-3.289525 7.197574,-3.125418 4.011624,0.262226 5.890124,2.672106 8.729256,3.759564 -4.300814,-0.439024 -6.048622,-0.05283 -9.005201,-0.08991 -3.782602,-0.04744 -4.393174,-0.446677 -6.921629,-0.544238 z"
       style="opacity:1;fill:#ffffff;fill-opacity:1;stroke:#000000;stroke-width:0.5;stroke-linecap:butt;stroke-linejoin:miter;stroke-miterlimit:4;stroke-dasharray:none;stroke-opacity:1" />
    <path
       sodipodi:nodetypes="cccccc"
       inkscape:connector-curvature="0"
       id="path950"
       d="m 71.842537,81.811071 c 1.601684,-0.433598 3.371612,-0.458819 5.399382,0.219512 0.623229,1.031466 0.751912,2.011816 -0.172464,3.037119 -1.898178,0.229494 -3.466785,0.0764 -5.116803,-0.02439 -0.680942,-1.47456 -0.730926,-2.09778 -0.110111,-3.232241 z"
       style="opacity:1;fill:#0080e7;fill-opacity:1;stroke:#000000;stroke-width:0.37795275;stroke-linecap:butt;stroke-linejoin:miter;stroke-miterlimit:4;stroke-dasharray:none;stroke-opacity:1" />
    <path
       sodipodi:nodetypes="cscsc"
       inkscape:connector-curvature="0"
       id="path834"
       d="m 103,85.536585 c 3.20325,-1.284553 5.22054,-3.834891 9.17073,-3.902439 3.89345,-0.06658 5.83739,2.495935 8.43902,3.707317 -3.49597,-0.192088 -5.60496,-0.105187 -8.17665,-0.03724 -2.99935,0.07925 -5.65261,-0.426172 -9.4331,0.232363 z"
       style="opacity:1;fill:#ffffff;fill-opacity:1;stroke:#000000;stroke-width:0.5;stroke-linecap:butt;stroke-linejoin:miter;stroke-miterlimit:4;stroke-dasharray:none;stroke-opacity:1" />
    <path
       sodipodi:nodetypes="ccccc"
       inkscape:connector-curvature="0"
       id="path836"
       d="m 90.923584,131.13529 6.07077,0.20696 c -0.02484,1.34967 0.373664,2.55823 0.896819,3.72524 l -7.312519,0.41392 c -0.09405,-1.55322 0.07261,-2.97609 0.34493,-4.34612 z"
       style="opacity:0.14900004;fill:#000000;fill-opacity:1;stroke:none;stroke-width:0.40000001;stroke-linecap:butt;stroke-linejoin:miter;stroke-miterlimit:4;stroke-dasharray:none;stroke-opacity:1" />
    <path
       sodipodi:nodetypes="cc"
       inkscape:connector-curvature="0"
       id="path840"
       d="m 106.92683,103.5122 c 2.91559,2.37398 5.4095,4.74797 7.41463,7.12195"
       style="fill:none;stroke:#000000;stroke-width:0.5;stroke-linecap:butt;stroke-linejoin:miter;stroke-miterlimit:4;stroke-dasharray:none;stroke-opacity:1" />
    <path
       sodipodi:nodetypes="cc"
       inkscape:connector-curvature="0"
       id="path842"
       d="m 75.746658,108.23193 c 1.431838,-2.20959 3.444943,-3.83792 5.375293,-5.549"
       style="fill:none;stroke:#000000;stroke-width:0.5;stroke-linecap:butt;stroke-linejoin:miter;stroke-miterlimit:4;stroke-dasharray:none;stroke-opacity:1" />
    <path
       sodipodi:nodetypes="ccccc"
       inkscape:connector-curvature="0"
       id="path856"
       d="m 109.92923,81.896513 c 1.79553,-0.456943 3.79292,-0.452298 5.46715,0.310437 0.79866,1.462086 0.2911,2.081082 -0.24145,3.069879 -2.04493,0.326264 -3.80716,0.202431 -5.20844,6e-6 -0.63252,-1.192747 -0.58027,-2.36671 -0.0173,-3.380322 z"
       style="fill:#0080e7;fill-opacity:1;stroke:#000000;stroke-width:0.37795275;stroke-linecap:butt;stroke-linejoin:miter;stroke-miterlimit:4;stroke-dasharray:none;stroke-opacity:1" />
    <circle
       r="0.77609277"
       cy="83.328476"
       cx="74.588188"
       id="path858"
       style="opacity:1;fill:#000000;fill-opacity:1;stroke:none;stroke-width:0.43609932;stroke-miterlimit:4;stroke-dasharray:none;stroke-opacity:1" />
    <circle
       r="0.77609277"
       cy="83.534935"
       cx="112.61968"
       id="path858-3"
       style="opacity:1;fill:#000000;fill-opacity:1;stroke:none;stroke-width:0.43609932;stroke-miterlimit:4;stroke-dasharray:none;stroke-opacity:1" />
    <g
       id="g1098">
      <path
         style="opacity:1;fill:#a05a2c;stroke:#000000;stroke-width:1px;stroke-linecap:butt;stroke-linejoin:miter;stroke-opacity:1"
         d="M 55.05085,89.743674 C 51.973022,79.467844 48.163224,76.674087 48.014275,67.668145 l -0.965804,3.449301 c -1.492007,-2.437918 -1.312164,-6.025234 0.137972,-10.485876 -0.899613,-0.05158 -1.536245,0.422803 -2.069581,1.103777 -0.369373,-2.345163 -0.532411,-4.74191 0.551888,-7.450491 -1.445042,-1.892883 -0.712325,-4.003543 -0.413916,-6.070771 1.33373,-0.969295 2.66746,-2.112108 4.00119,-3.449301 0.654077,-0.875865 0.04926,-1.499951 -0.137972,-2.207553 1.424356,-1.569847 3.015799,-3.009738 6.07077,-3.311329 l 0.551888,-2.621469 c 0.676865,-0.215297 1.606679,-0.602778 3.31133,-1.517693 0.761162,-3.580919 2.931658,-6.389022 9.917249,-11.06837 5.391049,-4.749052 11.907232,-10.838427 20.315369,-4.109746 2.376355,-2.995035 9.632591,-10.5454607 23.979402,-0.628648 3.69144,0.764682 4.42643,-0.505481 7.04757,3.113335 1.76458,1.927969 4.38736,3.021681 6.55308,2.621469 1.72155,0.624088 3.2394,0.163931 5.31252,2.897413 1.29359,1.11463 2.97919,2.912653 3.4493,5.932798 2.21869,2.471881 3.43771,4.610536 3.4493,6.346715 2.06292,2.777199 4.72665,3.952255 5.79483,9.3821 1.52135,4.936772 0.79838,6.057551 0.9658,8.692239 0.49093,6.36917 0.18343,13.961373 -0.0537,21.422613 -4.13569,2.932702 -6.42074,7.764484 -8.3626,13.622289 l -2.20756,-3.311329 c -0.20839,-6.540745 0.11022,-12.203148 -1.10376,-20.419864 0.25049,1.679365 -0.44619,3.44402 -1.35724,4.468934 -0.0677,-2.7544 -0.27852,-5.905677 -1.26013,-8.258862 -5.57623,-9.774436 -6.8185,-23.708139 -20.40564,-26.782887 0.57651,0.136682 0.58689,1.71809 0.67913,3.836846 -1.38396,-2.570774 -4.75746,-2.99152 -7.3891,-3.893828 -4.677216,-1.603671 -4.924362,-1.350714 -12.64188,-7.759903 -4.829717,3.793075 -8.190912,4.614851 -10.882356,6.104239 -6.248199,2.449549 -10.539852,5.062143 -20.83378,7.174547 -7.889965,13.006844 -0.413916,32.101498 -4.966994,45.254834 z"
         id="path891"
         inkscape:connector-curvature="0"
         sodipodi:nodetypes="ccccccccccccccccccccccccccccccscccc" />
      <path
         style="fill:#a05a2c;fill-opacity:1;stroke:#000000;stroke-width:0.69999999;stroke-linecap:butt;stroke-linejoin:miter;stroke-miterlimit:4;stroke-dasharray:none;stroke-opacity:1"
         d="M 68.398777,41.045893 C 65.755728,42.09474 63.253348,43.744882 60.77669,48.559015 59.492493,45.999437 56.305828,31.378441 67.934499,25.07316"
         id="path996"
         inkscape:connector-curvature="0"
         sodipodi:nodetypes="ccc" />
    </g>
    <path
       sodipodi:nodetypes="csc"
       inkscape:connector-curvature="0"
       id="path875"
       d="m 64.536585,84.731707 c 1.670527,-1.788821 3.229865,-4.955143 13.219513,-4.975609 2.887228,-0.0059 4.727251,2.976501 6.487804,4.585366"
       style="fill:none;stroke:#000000;stroke-width:0.40000001;stroke-linecap:butt;stroke-linejoin:miter;stroke-miterlimit:4;stroke-dasharray:none;stroke-opacity:1" />
    <path
       sodipodi:nodetypes="cssc"
       inkscape:connector-curvature="0"
       id="path877"
       d="m 103.25992,83.113582 c 1.40776,-1.527622 3.58941,-3.402304 6.04041,-3.463415 3.67884,-0.09173 7.88224,0.461164 10.84601,2.642516 0.42114,0.309959 1.20966,1.256959 1.70732,2.292683"
       style="fill:none;stroke:#000000;stroke-width:0.40000001;stroke-linecap:butt;stroke-linejoin:miter;stroke-miterlimit:4;stroke-dasharray:none;stroke-opacity:1" />
    <path
       sodipodi:nodetypes="cc"
       inkscape:connector-curvature="0"
       id="path882"
       d="m 104.60988,87.331781 c 3.99273,2.384709 6.83801,3.825908 11.83919,3.384029"
       style="fill:none;stroke:#000000;stroke-width:0.40000001;stroke-linecap:butt;stroke-linejoin:miter;stroke-miterlimit:4;stroke-dasharray:none;stroke-opacity:1" />
    <path
       sodipodi:nodetypes="cc"
       inkscape:connector-curvature="0"
       id="path884"
       d="m 99.414634,82.926829 c -1.686986,2.144987 -1.717901,4.473982 -1.073171,6.878049"
       style="fill:none;stroke:#000000;stroke-width:0.40000001;stroke-linecap:butt;stroke-linejoin:miter;stroke-miterlimit:4;stroke-dasharray:none;stroke-opacity:1" />
    <path
       sodipodi:nodetypes="cc"
       inkscape:connector-curvature="0"
       id="path886"
       d="m 72.04878,116.87805 c -0.743004,1.27766 -0.937198,2.69253 0.390244,4.4878"
       style="fill:none;stroke:#000000;stroke-width:0.5;stroke-linecap:butt;stroke-linejoin:miter;stroke-miterlimit:4;stroke-dasharray:none;stroke-opacity:1" />
    <path
       sodipodi:nodetypes="cccc"
       inkscape:connector-curvature="0"
       id="path904"
       d="m 77.919718,120.40796 c 10.15139,-0.11234 20.307856,-0.2263 28.215282,0.37943 -3.39943,2.33791 -7.44887,4.0258 -12.865891,4.34612 -8.610126,-1.13848 -12.577249,-2.85733 -15.349391,-4.72555 z"
       style="opacity:1;fill:#fcfcfc;fill-opacity:1;stroke:none;stroke-width:1px;stroke-linecap:butt;stroke-linejoin:miter;stroke-opacity:1" />
    <path
       inkscape:connector-curvature="0"
       id="path888"
       d="m 93.441574,121.51174 0.06899,2.9664"
       style="fill:none;stroke:#000000;stroke-width:0.40000001;stroke-linecap:butt;stroke-linejoin:miter;stroke-miterlimit:4;stroke-dasharray:none;stroke-opacity:1" />
    <path
       inkscape:connector-curvature="0"
       id="path890"
       d="m 88.750524,121.37377 0.379423,2.55248"
       style="fill:none;stroke:#000000;stroke-width:0.40000001;stroke-linecap:butt;stroke-linejoin:miter;stroke-miterlimit:4;stroke-dasharray:none;stroke-opacity:1" />
    <path
       inkscape:connector-curvature="0"
       id="path892"
       d="m 98.098131,121.58073 c -0.0115,0.0575 -0.02299,0.11497 -0.03449,0.17246"
       style="fill:none;stroke:#000000;stroke-width:1px;stroke-linecap:butt;stroke-linejoin:miter;stroke-opacity:1" />
    <path
       inkscape:connector-curvature="0"
       id="path894"
       d="m 98.098131,121.58073 -0.137972,2.24204"
       style="fill:none;stroke:#000000;stroke-width:0.40000001;stroke-linecap:butt;stroke-linejoin:miter;stroke-miterlimit:4;stroke-dasharray:none;stroke-opacity:1" />
    <path
       inkscape:connector-curvature="0"
       id="path896"
       d="m 85.473688,121.27029 0.34493,2.13857"
       style="fill:none;stroke:#000000;stroke-width:0.40000001;stroke-linecap:butt;stroke-linejoin:miter;stroke-miterlimit:4;stroke-dasharray:none;stroke-opacity:1" />
    <path
       inkscape:connector-curvature="0"
       id="path898"
       d="m 82.645261,120.99434 0.172465,1.72466"
       style="fill:none;stroke:#000000;stroke-width:0.40000001;stroke-linecap:butt;stroke-linejoin:miter;stroke-miterlimit:4;stroke-dasharray:none;stroke-opacity:1" />
    <path
       inkscape:connector-curvature="0"
       id="path900"
       d="m 80.886117,120.82188 0.103479,1.13827"
       style="fill:none;stroke:#000000;stroke-width:0.40000001;stroke-linecap:butt;stroke-linejoin:miter;stroke-miterlimit:4;stroke-dasharray:none;stroke-opacity:1" />
    <path
       sodipodi:nodetypes="sssssccss"
       inkscape:connector-curvature="0"
       id="path988"
       d="m 102.92683,78.146342 c 6.53786,-2.497649 22.46108,-1.008882 23.31707,1.951219 2.17396,7.51781 -5.27192,14.357966 -11.41463,14.439025 -8.33004,0.109923 -10.01585,-8.33421 -12.87805,-5.170732 -3.13949,3.469961 -0.37806,7.226796 2.82927,10.634146 3.33704,3.54516 7.63109,6.25182 11.11604,13.47487 -8.33215,-7.73371 -11.29544,-7.94613 -10.62824,-6.35292 -0.005,-7.62476 -6.119629,-5.25799 -7.902436,-10.048779 -2.192491,-5.891698 -1.820831,-16.106767 5.560976,-18.926829 z"
       style="opacity:0.07399998;fill:#585032;fill-opacity:1;stroke:none;stroke-width:1px;stroke-linecap:butt;stroke-linejoin:miter;stroke-opacity:1" />
    <path
       sodipodi:nodetypes="cscscc"
       inkscape:connector-curvature="0"
       id="path838"
       d="m 76.006338,119.88713 c 5.500653,2.27998 11.134736,4.30279 17.603418,4.30799 6.543884,0.005 11.324064,-1.70583 16.106524,-3.99019 -5.21712,2.96042 -9.62142,5.88739 -13.650762,6.01835 -2.137875,0.0695 -3.503294,0.23186 -5.808763,-0.0345 -7.019213,-1.04049 -9.267159,-4.22865 -14.250417,-6.30167 z"
       style="opacity:1;fill:#fa8e65;fill-opacity:1;stroke:#000000;stroke-width:0.5;stroke-linecap:butt;stroke-linejoin:miter;stroke-miterlimit:4;stroke-dasharray:none;stroke-opacity:1" />
    <path
       sodipodi:nodetypes="cccccccc"
       inkscape:connector-curvature="0"
       id="path920"
       d="m 74.973945,119.63973 c 4.875817,1.7297 9.041911,2.2396 15.811667,1.35461 1.429415,0.55595 3.27649,0.67906 5.287534,0.25993 9.185584,1.62056 11.780514,-0.22151 14.629224,-1.29053 -5.83188,0.28921 -9.84635,-0.01 -13.604536,-0.65955 -3.376025,0.75928 -5.251972,0.56314 -7.726436,0.0345 -4.881538,0.30477 -7.237723,1.05847 -14.397453,0.30106 z"
       style="opacity:1;fill:#fa8e65;fill-opacity:1;stroke:#000000;stroke-width:0.37795275;stroke-linecap:butt;stroke-linejoin:miter;stroke-miterlimit:4;stroke-dasharray:none;stroke-opacity:1" />
    <path
       sodipodi:nodetypes="cscc"
       inkscape:connector-curvature="0"
       id="path998"
       d="m 103.7561,85.02439 c 0,0 2.38249,-4.446202 4.53658,-5.365853 1.93281,-0.82518 6.29269,0.390244 6.29269,0.390244 -3.60976,1.658536 -7.21951,3.317073 -10.82927,4.975609 z"
       style="fill:none;stroke:none;stroke-width:1px;stroke-linecap:butt;stroke-linejoin:miter;stroke-opacity:1" />
    <path
       sodipodi:nodetypes="cscc"
       inkscape:connector-curvature="0"
       id="path1000"
       d="m 103,85.536585 c 0.49368,-1.495652 0.59099,-3.694286 5.43902,-5.829268 1.54771,-0.68158 4.9431,0.504065 6.63416,0.487805 -7.44011,1.172724 -6.89033,3.159601 -12.07318,5.341463 z"
       style="opacity:0.23200001;fill:#433600;fill-opacity:1;stroke:none;stroke-width:1px;stroke-linecap:butt;stroke-linejoin:miter;stroke-opacity:1" />
    <path
       sodipodi:nodetypes="cscsc"
       inkscape:connector-curvature="0"
       id="path1002"
       d="m 65.756098,85.121951 c 3.427005,-1.690501 0.772131,-4.408006 12.682926,-5.414634 2.462352,-0.208103 5.219513,3.902439 5.341464,5.804877 -2.772358,-1.252032 -5.714238,-3.974685 -8.756098,-3.999999 -3.315364,-0.02759 -6.178861,2.406504 -9.268292,3.609756 z"
       style="opacity:0.244;fill:#433600;fill-opacity:1;stroke:none;stroke-width:1px;stroke-linecap:butt;stroke-linejoin:miter;stroke-opacity:1" />
  </g>
</svg>
